<?xml version="1.0" encoding="UTF-8"?>
<svg width="16px" height="16px" viewBox="0 0 16 16" version="1.1" xmlns="http://www.w3.org/2000/svg" xmlns:xlink="http://www.w3.org/1999/xlink">
    <!-- Generator: Sketch 42 (36781) - http://www.bohemiancoding.com/sketch -->
    <title>Amazon</title>
    <desc>Created with Sketch.</desc>
    <defs></defs>
    <g id="Book-Brawl-UI" stroke="none" stroke-width="1" fill="none" fill-rule="evenodd">
        <g id="10.1-BB_My_Account_Desktop" transform="translate(-511.000000, -268.000000)">
            <g id="Content" transform="translate(256.000000, 55.000000)">
                <g id="Amazon" transform="translate(255.000000, 213.000000)">
                    <circle id="BG" fill="#D9DCDD" cx="8" cy="8" r="8"></circle>
                    <g id="Group" transform="translate(2.000000, 3.000000)" fill-rule="nonzero" fill="#FFFFFF">
                        <path d="M8.49499358,3.43554007 C8.49499358,3.82346109 8.50907757,4.20905923 8.49029892,4.59698026 C8.47152026,5.03832753 8.60766551,5.41695703 8.88934531,5.7514518 C8.92220796,5.79094077 8.95272327,5.83042973 8.98089125,5.87224158 C9.08182652,6.0232288 9.06304786,6.12775842 8.92455529,6.24390244 C8.62879149,6.49012776 8.33537502,6.73867596 8.03961122,6.98490128 C7.86356134,7.13124274 7.75323675,7.12891986 7.57483954,6.98490128 C7.3354117,6.79210221 7.14762516,6.55516841 6.98096461,6.30197445 C6.94105997,6.24157956 6.91993398,6.24390244 6.87064001,6.29036005 C6.57487621,6.57607433 6.26268109,6.84088269 5.86598203,6.97328688 C5.25332844,7.18002323 4.63128553,7.21254355 4.01628461,6.99651568 C3.42475701,6.78745645 3.07030992,6.3554007 2.93885934,5.75377468 C2.79332478,5.08246225 2.86843939,4.44367015 3.28626444,3.87456446 C3.60315423,3.44483159 4.04210526,3.19163763 4.54678159,3.03600465 C5.06788924,2.87804878 5.6054282,2.81765389 6.14531451,2.76422764 C6.29789107,2.74796748 6.4481203,2.7340302 6.60069686,2.72009292 C6.63825417,2.71777003 6.67111682,2.71312427 6.66876948,2.66434379 C6.66407482,2.41811847 6.68989547,2.16724739 6.63121218,1.92566783 C6.55609756,1.61672474 6.3518797,1.43554007 6.03968458,1.36817654 C5.81668806,1.31939605 5.59603888,1.33333333 5.38008436,1.40534262 C5.05145791,1.51684088 4.84724005,1.74216028 4.76508344,2.07665505 C4.72048414,2.2601626 4.63363286,2.32520325 4.45288832,2.30662021 C4.06792591,2.26713124 3.68296351,2.22764228 3.30034843,2.18815331 C3.14307721,2.17189315 3.06092059,2.05342625 3.09378324,1.90243902 C3.29330644,0.93844367 3.93178067,0.397212544 4.85193471,0.148664344 C5.55848157,-0.0418118467 6.27441775,-0.0534262485 6.98331194,0.144018583 C7.55371355,0.301974448 8.03256923,0.580720093 8.30016505,1.13356562 C8.45274161,1.44715447 8.48795159,1.78629501 8.49264625,2.12543554 C8.49734091,2.55981417 8.49264625,2.99883856 8.49499358,3.43554007 C8.49264625,3.43554007 8.49499358,3.43554007 8.49499358,3.43554007 Z M6.66876948,4.16027875 C6.66876948,4.04413473 6.66407482,3.92799071 6.67111682,3.81184669 C6.67581148,3.7398374 6.64999083,3.71428571 6.57722355,3.72125436 C6.39882633,3.73751452 6.21808179,3.7398374 6.03968458,3.7630662 C5.72748946,3.80255517 5.42233633,3.87921022 5.1688245,4.07433217 C4.80029342,4.36004646 4.72283147,4.75029036 4.78386209,5.18931475 C4.85662938,5.70499419 5.32140106,5.99070848 5.81903539,5.81881533 C6.15705116,5.70267131 6.36361636,5.45644599 6.50680359,5.1475029 C6.65703283,4.83391405 6.66876948,4.4970964 6.66876948,4.16027875 Z" id="Shape"></path>
                        <path d="M5.80025674,9.40301974 C4.00924262,9.39140534 2.40132037,8.93612079 0.948322025,7.9767712 C0.652558225,7.78164925 0.370878416,7.56794425 0.103282597,7.33333333 C0.0798092793,7.31242741 0.0563359619,7.29152149 0.0375573079,7.2659698 C0.0117366587,7.2311266 -0.00704199523,7.18931475 0.0234733174,7.1475029 C0.0539886301,7.1010453 0.105629928,7.09639954 0.150229232,7.11730546 C0.253511828,7.16608595 0.352099762,7.2195122 0.453035027,7.27061556 C1.37788373,7.75377468 2.35202641,8.10220674 3.37311572,8.32288037 C4.29796442,8.52264808 5.23220246,8.6155633 6.18052448,8.59001161 C7.5349349,8.55284553 8.84005135,8.28339141 10.0958738,7.78397213 C10.1569045,7.75842044 10.2202824,7.73286876 10.2836604,7.71893148 C10.372859,7.70267131 10.4620576,7.71428571 10.5019622,7.80952381 C10.5395195,7.89779326 10.4902256,7.96747967 10.4245003,8.0232288 C10.3775536,8.06271777 10.323565,8.0952381 10.2695764,8.1300813 C9.45974693,8.6504065 8.57245553,8.98490128 7.63352283,9.19163763 C7.01382725,9.33101045 6.38474234,9.39837398 5.80025674,9.40301974 Z" id="Shape"></path>
                        <path d="M10.3188703,7.33333333 C10.0489272,7.33101045 9.78133138,7.36585366 9.51373556,7.39372822 C9.46209426,7.39837398 9.40341097,7.41231127 9.37993765,7.35656214 C9.35176967,7.29384437 9.4057583,7.25667828 9.4503576,7.22648084 C9.78367871,7.00813008 10.1569045,6.92218351 10.5489089,6.90127758 C10.818852,6.88501742 11.0864478,6.89663182 11.349349,6.97560976 C11.4690629,7.01045296 11.5277462,7.08013937 11.5253989,7.20092915 C11.5113149,7.8466899 11.293013,8.40882695 10.8211993,8.86643438 C10.804768,8.88269454 10.7859894,8.89663182 10.7672107,8.91056911 C10.7249587,8.94076655 10.6733174,8.96864111 10.6287181,8.93147503 C10.5864662,8.89663182 10.6099395,8.84552846 10.6287181,8.80371661 C10.7672107,8.46225319 10.9080506,8.12311266 10.9761232,7.75842044 C10.9855126,7.71196283 10.9878599,7.66550523 10.9902072,7.6213705 C10.9925546,7.47038328 10.9385659,7.40534262 10.7883367,7.36817654 C10.6310655,7.32636469 10.4737942,7.33333333 10.3188703,7.33333333 Z" id="Shape"></path>
                    </g>
                </g>
            </g>
        </g>
    </g>
</svg>