<?xml version="1.0" encoding="UTF-8"?>
<svg width="16px" height="16px" viewBox="0 0 16 16" version="1.1" xmlns="http://www.w3.org/2000/svg" xmlns:xlink="http://www.w3.org/1999/xlink">
    <!-- Generator: Sketch 42 (36781) - http://www.bohemiancoding.com/sketch -->
    <title>Goodreads</title>
    <desc>Created with Sketch.</desc>
    <defs></defs>
    <g id="Book-Brawl-UI" stroke="none" stroke-width="1" fill="none" fill-rule="evenodd">
        <g id="10.1-BB_My_Account_Desktop" transform="translate(-487.000000, -268.000000)" fill-rule="nonzero">
            <g id="Content" transform="translate(256.000000, 55.000000)">
                <g id="Goodreads" transform="translate(231.000000, 213.000000)">
                    <path d="M8,0 C3.5815,0 0,3.5815 0,8 C0,12.418 3.5815,16 8,16 C12.4185,16 16,12.418 16,8 C16,3.5815 12.4185,0 8,0 Z" id="Shape" fill="#D9DCDD"></path>
                    <g id="flat" transform="translate(5.000000, 3.000000)" fill="#FFFFFF">
                        <g id="goodreads">
                            <path d="M2.9735,6.841 C4.037,6.833 4.7935,6.3405 5.242,5.3635 L5.2655,5.3635 L5.2655,6.8535 C5.2655,6.9645 5.2575,7.1365 5.242,7.3705 C5.21,7.6125 5.1245,7.8735 4.986,8.1525 C4.847,8.415 4.6225,8.639 4.3135,8.8235 C4.0075,9.0245 3.581,9.129 3.033,9.1375 C2.505,9.1375 2.0585,9.01 1.6935,8.7555 C1.32,8.505 1.102,8.0985 1.0385,7.5365 L0.574,7.5365 C0.6215,8.267 0.8735,8.7885 1.33,9.1 C1.7745,9.3995 2.338,9.5495 3.021,9.5495 C3.6955,9.5495 4.222,9.4325 4.599,9.1985 C4.972,8.973 5.2395,8.6915 5.403,8.355 C5.5655,8.0185 5.663,7.698 5.6945,7.3945 C5.7185,7.091 5.7305,6.8735 5.7305,6.742 L5.7305,0.598 L5.266,0.598 L5.266,1.9525 L5.2425,1.9525 C5.064,1.456 4.768,1.0805 4.355,0.826 C3.9385,0.5755 3.4775,0.4505 2.974,0.4505 C2.0965,0.467 1.4295,0.781 0.9735,1.3925 C0.505,2 0.271,2.749 0.271,3.6395 C0.271,4.555 0.493,5.312 0.9375,5.911 C1.386,6.523 2.0645,6.8325 2.9735,6.841 L2.9735,6.841 Z M1.2945,1.725 C1.6595,1.171 2.219,0.8835 2.9735,0.863 C3.7475,0.8835 4.321,1.1625 4.694,1.7005 C5.067,2.2385 5.2535,2.8845 5.2535,3.64 C5.2535,4.3955 5.067,5.0375 4.694,5.567 C4.3205,6.1295 3.7475,6.4165 2.9735,6.429 C2.243,6.4165 1.687,6.1375 1.306,5.592 C0.921,5.0625 0.7285,4.412 0.7285,3.6405 C0.7285,2.917 0.9175,2.279 1.2945,1.725 L1.2945,1.725 Z" id="Shape"></path>
                        </g>
                    </g>
                </g>
            </g>
        </g>
    </g>
</svg>