<?xml version="1.0" encoding="UTF-8"?>
<svg width="16px" height="16px" viewBox="0 0 16 16" version="1.1" xmlns="http://www.w3.org/2000/svg" xmlns:xlink="http://www.w3.org/1999/xlink">
    <!-- Generator: Sketch 42 (36781) - http://www.bohemiancoding.com/sketch -->
    <title>Twitter</title>
    <desc>Created with Sketch.</desc>
    <defs></defs>
    <g id="Book-Brawl-UI" stroke="none" stroke-width="1" fill="none" fill-rule="evenodd">
        <g id="10.1-BB_My_Account_Desktop" transform="translate(-583.000000, -268.000000)" fill-rule="nonzero">
            <g id="Content" transform="translate(256.000000, 55.000000)">
                <g id="Twitter" transform="translate(327.000000, 213.000000)">
                    <circle id="Oval" fill="#D9DCDD" cx="8" cy="8" r="8"></circle>
                    <path d="M12.2666667,5.13333333 C11.9666667,5.3 11.6,5.4 11.2666667,5.43333333 C11.6333333,5.2 11.9,4.83333333 12.0333333,4.4 C11.7,4.6 11.3333333,4.76666667 10.9,4.86666667 C10.5666667,4.5 10.1333333,4.26666667 9.63333333,4.26666667 C8.66666667,4.26666667 7.86666667,5.1 7.86666667,6.16666667 C7.86666667,6.3 7.86666667,6.46666667 7.9,6.6 C6.43333333,6.53333333 5.13333333,5.76666667 4.26666667,4.63333333 C4.1,4.9 4.03333333,5.23333333 4.03333333,5.6 C4.03333333,6.26666667 4.33333333,6.83333333 4.8,7.16666667 C4.5,7.16666667 4.23333333,7.06666667 4,6.93333333 L4,6.96666667 C4,7.86666667 4.6,8.63333333 5.4,8.83333333 C5.26666667,8.86666667 5.1,8.9 4.93333333,8.9 C4.83333333,8.9 4.7,8.9 4.6,8.86666667 C4.83333333,9.63333333 5.46666667,10.1666667 6.23333333,10.1666667 C5.63333333,10.6666667 4.86666667,10.9666667 4.06666667,10.9666667 C3.93333333,10.9666667 3.8,10.9666667 3.63333333,10.9333333 C4.4,11.4666667 5.33333333,11.8 6.33333333,11.8 C9.56666667,11.8 11.3333333,8.93333333 11.3333333,6.43333333 L11.3333333,6.2 C11.7333333,5.86666667 12.0333333,5.53333333 12.2666667,5.13333333 Z" id="Shape" fill="#FFFFFF"></path>
                </g>
            </g>
        </g>
    </g>
</svg>