<?xml version="1.0" encoding="UTF-8"?>
<svg width="16px" height="16px" viewBox="0 0 16 16" version="1.1" xmlns="http://www.w3.org/2000/svg" xmlns:xlink="http://www.w3.org/1999/xlink">
    <!-- Generator: Sketch 42 (36781) - http://www.bohemiancoding.com/sketch -->
    <title>Wordpress</title>
    <desc>Created with Sketch.</desc>
    <defs></defs>
    <g id="Book-Brawl-UI" stroke="none" stroke-width="1" fill="none" fill-rule="evenodd">
        <g id="10.1-BB_My_Account_Desktop" transform="translate(-535.000000, -268.000000)" fill="#D9DCDD">
            <g id="Content" transform="translate(256.000000, 55.000000)">
                <g id="Wordpress" transform="translate(279.000000, 213.000000)">
                    <path d="M13.8725333,8 C13.8725333,11.2429333 11.2426667,13.8722667 8,13.8722667 C4.75706667,13.8722667 2.12746667,11.2429333 2.12746667,8 C2.12746667,4.75706667 4.75706667,2.12746667 8,2.12746667 C11.2426667,2.12746667 13.8725333,4.75706667 13.8725333,8 Z M13.5234667,8 C13.5234667,11.0501333 11.0501333,13.5234667 8,13.5234667 C4.94986667,13.5234667 2.47653333,11.0501333 2.47653333,8 C2.47653333,4.94986667 4.94986667,2.47653333 8,2.47653333 C11.0501333,2.47653333 13.5234667,4.94986667 13.5234667,8 Z M2.95013333,8 C2.95013333,7.25306667 3.11253333,6.54373333 3.404,5.90586667 L5.8392,12.5648 C4.13173333,11.7549333 2.95013333,10.0152 2.95013333,8 Z M8,13.0496 C7.48906667,13.0496 6.99626667,12.9736 6.53146667,12.8325333 L8.08693333,8.3744 L9.6904,12.7594667 C9.16186667,12.9469333 8.59333333,13.0496 8,13.0496 Z M13.0498667,8 C13.0498667,9.91013333 11.9888,11.5728 10.4234667,12.4306667 L11.9986667,7.96986667 C12.2426667,7.27946667 12.4690667,6.3464 12.4413333,5.5952 C12.8293333,6.3104 13.0498667,7.1296 13.0498667,8 Z M11.416,4.2816 C10.5168,3.4552 9.31733333,2.9504 8,2.9504 C6.224,2.9504 4.66186667,3.86773333 3.76186667,5.2544 C4.33546667,5.24853333 4.9512,5.24213333 5.5648,5.2096 C5.5912,5.208 5.61306667,5.232 5.61306667,5.25973333 L5.61306667,5.56213333 C5.61306667,5.58986667 5.59146667,5.61253333 5.5648,5.61253333 L4.98026667,5.61253333 C4.91466667,5.61253333 4.8872,5.652 4.91013333,5.71946667 L6.744,11.1218667 L7.86,7.7528 L7.11813333,5.724 C7.0912,5.65066667 7.0592,5.61253333 6.94506667,5.61253333 L6.432,5.61253333 C6.4056,5.61253333 6.38373333,5.58986667 6.38373333,5.56213333 L6.38373333,5.25973333 C6.38373333,5.232 6.4056,5.20826667 6.432,5.20933333 C7.38693333,5.252 8.34773333,5.25173333 9.3144,5.20933333 C9.34106667,5.20826667 9.36266667,5.232 9.36266667,5.25973333 L9.36266667,5.56213333 C9.36266667,5.58986667 9.34106667,5.61253333 9.3144,5.61253333 L8.804,5.61253333 C8.70293333,5.61253333 8.67013333,5.6592 8.6984,5.7416 L10.5037333,11.0589333 L11.1666667,9.0416 C11.968,6.6024 10.4808,6.34426667 10.5176,5.13146667 C10.5354667,4.53173333 10.9752,4.26986667 11.416,4.2816 Z M8,16 C3.58186667,16 0,12.4181333 0,8 C0,3.5816 3.58186667,0 8,0 C12.4181333,0 16,3.5816 16,8 C16,12.4181333 12.4181333,16 8,16 Z" id="Shape"></path>
                </g>
            </g>
        </g>
    </g>
</svg>